<?xml version="1.0" encoding="UTF-8" standalone="no"?>
<!DOCTYPE svg PUBLIC "-//W3C//DTD SVG 1.1//EN" "http://www.w3.org/Graphics/SVG/1.1/DTD/svg11.dtd">
<svg width="100%" height="100%" viewBox="0 0 400 299" version="1.1" xmlns="http://www.w3.org/2000/svg" xmlns:xlink="http://www.w3.org/1999/xlink" xml:space="preserve" xmlns:serif="http://www.serif.com/" style="fill-rule:evenodd;clip-rule:evenodd;stroke-linejoin:round;stroke-miterlimit:2;">
    <g transform="matrix(1.905,0,0,1.905,9.5,7.55464)">
        <rect x="0" y="130.96" width="200" height="0.1" style="fill:rgb(229,229,229);fill-rule:nonzero;"/>
    </g>
    <g transform="matrix(1.905,0,0,1.905,9.5,7.55464)">
        <rect x="20.984" y="134.768" width="6.424" height="0.1" style="fill:rgb(229,229,229);fill-rule:nonzero;"/>
    </g>
    <g transform="matrix(1.905,0,0,1.905,9.5,7.55464)">
        <rect x="68.456" y="133.684" width="21.412" height="0.1" style="fill:rgb(229,229,229);fill-rule:nonzero;"/>
    </g>
    <g transform="matrix(1.905,0,0,1.905,9.5,7.55464)">
        <rect x="27.808" y="138.484" width="14.5" height="0.1" style="fill:rgb(229,229,229);fill-rule:nonzero;"/>
    </g>
    <g transform="matrix(1.905,0,0,1.905,9.5,7.55464)">
        <rect x="151.656" y="133.632" width="17.276" height="0.1" style="fill:rgb(229,229,229);fill-rule:nonzero;"/>
    </g>
    <g transform="matrix(1.905,0,0,1.905,9.5,7.55464)">
        <rect x="172.496" y="133.632" width="2.532" height="0.1" style="fill:rgb(229,229,229);fill-rule:nonzero;"/>
    </g>
    <g transform="matrix(1.905,0,0,1.905,9.5,7.55464)">
        <rect x="126.8" y="136.124" width="21.556" height="0.1" style="fill:rgb(229,229,229);fill-rule:nonzero;"/>
    </g>
    <g transform="matrix(1.905,0,0,1.905,9.5,7.55464)">
        <path d="M94.8,113.12L17.564,113.12C16.959,113.119 16.379,112.878 15.952,112.45C15.524,112.021 15.284,111.441 15.284,110.836L15.284,2.264C15.289,1.662 15.532,1.087 15.959,0.663C16.386,0.239 16.962,0.001 17.564,0L94.8,0C95.406,0 95.987,0.241 96.415,0.669C96.843,1.097 97.084,1.678 97.084,2.284L97.084,110.836C97.084,111.442 96.843,112.023 96.415,112.451C95.987,112.879 95.406,113.12 94.8,113.12ZM17.564,0.08C16.985,0.081 16.431,0.312 16.022,0.721C15.614,1.131 15.384,1.685 15.384,2.264L15.384,110.836C15.384,111.415 15.614,111.969 16.022,112.379C16.431,112.788 16.985,113.019 17.564,113.02L94.8,113.02C95.379,113.019 95.934,112.789 96.343,112.379C96.753,111.97 96.983,111.415 96.984,110.836L96.984,2.264C96.983,1.685 96.753,1.13 96.343,0.721C95.934,0.311 95.379,0.081 94.8,0.08L17.564,0.08Z" style="fill:rgb(229,229,229);fill-rule:nonzero;"/>
    </g>
    <g transform="matrix(1.905,0,0,1.905,9.5,7.55464)">
        <path d="M181.324,113.12L104.084,113.12C103.479,113.119 102.898,112.878 102.47,112.45C102.042,112.022 101.801,111.441 101.8,110.836L101.8,2.264C101.806,1.662 102.05,1.087 102.477,0.663C102.905,0.239 103.482,0.001 104.084,0L181.324,0C181.925,0.002 182.501,0.241 182.927,0.665C183.353,1.088 183.595,1.663 183.6,2.264L183.6,110.836C183.6,111.44 183.36,112.02 182.934,112.448C182.507,112.876 181.928,113.118 181.324,113.12ZM104.084,0.08C103.505,0.081 102.95,0.311 102.541,0.721C102.131,1.13 101.901,1.685 101.9,2.264L101.9,110.836C101.901,111.415 102.131,111.97 102.541,112.379C102.95,112.789 103.505,113.019 104.084,113.02L181.324,113.02C181.903,113.019 182.458,112.789 182.867,112.379C183.276,111.97 183.507,111.415 183.508,110.836L183.508,2.264C183.507,1.685 183.276,1.13 182.867,0.721C182.458,0.311 181.903,0.081 181.324,0.08L104.084,0.08Z" style="fill:rgb(229,229,229);fill-rule:nonzero;"/>
    </g>
    <g transform="matrix(1.905,0,0,1.905,9.5,7.55464)">
        <rect x="57.396" y="89.352" width="14.04" height="2.768" style="fill:rgb(230,230,230);fill-rule:nonzero;"/>
    </g>
    <g transform="matrix(1.905,0,0,1.905,9.5,7.55464)">
        <rect x="30.916" y="18.672" width="2.592" height="112.288" style="fill:rgb(230,230,230);fill-rule:nonzero;"/>
    </g>
    <g transform="matrix(1.905,0,0,1.905,9.5,7.55464)">
        <rect x="21.94" y="89.356" width="35.456" height="2.768" style="fill:rgb(245,245,245);fill-rule:nonzero;"/>
    </g>
    <g transform="matrix(1.905,0,0,1.905,9.5,7.55464)">
        <rect x="57.396" y="123.936" width="14.04" height="2.768" style="fill:rgb(230,230,230);fill-rule:nonzero;"/>
    </g>
    <g transform="matrix(1.905,0,0,1.905,9.5,7.55464)">
        <rect x="21.94" y="123.936" width="35.456" height="2.768" style="fill:rgb(245,245,245);fill-rule:nonzero;"/>
    </g>
    <g transform="matrix(1.905,0,0,1.905,9.5,7.55464)">
        <rect x="57.396" y="20.184" width="14.04" height="2.768" style="fill:rgb(230,230,230);fill-rule:nonzero;"/>
    </g>
    <g transform="matrix(1.905,0,0,1.905,9.5,7.55464)">
        <rect x="21.94" y="20.188" width="35.456" height="2.768" style="fill:rgb(245,245,245);fill-rule:nonzero;"/>
    </g>
    <g transform="matrix(1.905,0,0,1.905,9.5,7.55464)">
        <rect x="57.396" y="54.768" width="14.04" height="2.768" style="fill:rgb(230,230,230);fill-rule:nonzero;"/>
    </g>
    <g transform="matrix(1.905,0,0,1.905,9.5,7.55464)">
        <rect x="21.94" y="54.772" width="35.456" height="2.768" style="fill:rgb(245,245,245);fill-rule:nonzero;"/>
    </g>
    <g transform="matrix(1.905,0,0,1.905,9.5,7.55464)">
        <rect x="66.372" y="18.672" width="2.592" height="112.288" style="fill:rgb(230,230,230);fill-rule:nonzero;"/>
    </g>
    <g transform="matrix(1.905,0,0,1.905,9.5,7.55464)">
        <rect x="54.804" y="18.672" width="2.592" height="112.288" style="fill:rgb(245,245,245);fill-rule:nonzero;"/>
    </g>
    <g transform="matrix(1.905,0,0,1.905,9.5,7.55464)">
        <rect x="21.94" y="18.672" width="2.592" height="112.288" style="fill:rgb(245,245,245);fill-rule:nonzero;"/>
    </g>
    <g transform="matrix(1.905,0,0,1.905,9.5,7.55464)">
        <rect x="157.2" y="95.016" width="29.188" height="3.6" style="fill:rgb(229,229,229);fill-rule:nonzero;"/>
    </g>
    <g transform="matrix(1.905,0,0,1.905,9.5,7.55464)">
        <path d="M190,130.96L182.612,98.616L179.636,98.616L188.872,130.96L190,130.96Z" style="fill:rgb(224,224,224);fill-rule:nonzero;"/>
    </g>
    <g transform="matrix(1.905,0,0,1.905,9.5,7.55464)">
        <path d="M153.588,130.96L160.976,98.616L163.952,98.616L154.72,130.96L153.588,130.96Z" style="fill:rgb(224,224,224);fill-rule:nonzero;"/>
    </g>
    <g transform="matrix(1.905,0,0,1.905,9.5,7.55464)">
        <path d="M168.308,130.96L170.896,98.616L173.868,98.616L169.44,130.96L168.308,130.96Z" style="fill:rgb(224,224,224);fill-rule:nonzero;"/>
    </g>
    <g transform="matrix(1.905,0,0,1.905,9.5,7.55464)">
        <rect x="111.692" y="95.016" width="29.188" height="3.6" style="fill:rgb(229,229,229);fill-rule:nonzero;"/>
    </g>
    <g transform="matrix(1.905,0,0,1.905,9.5,7.55464)">
        <path d="M144.492,130.96L137.104,98.616L134.128,98.616L143.364,130.96L144.492,130.96Z" style="fill:rgb(224,224,224);fill-rule:nonzero;"/>
    </g>
    <g transform="matrix(1.905,0,0,1.905,9.5,7.55464)">
        <path d="M108.084,130.96L115.472,98.616L118.448,98.616L109.212,130.96L108.084,130.96Z" style="fill:rgb(224,224,224);fill-rule:nonzero;"/>
    </g>
    <g transform="matrix(1.905,0,0,1.905,9.5,7.55464)">
        <path d="M122.804,130.96L125.388,98.616L128.364,98.616L123.932,130.96L122.804,130.96Z" style="fill:rgb(224,224,224);fill-rule:nonzero;"/>
    </g>
    <g transform="matrix(1.905,0,0,1.905,9.5,7.55464)">
        <rect x="84.86" y="34.492" width="85.28" height="3.22" style="fill:rgb(240,240,240);fill-rule:nonzero;"/>
    </g>
    <g transform="matrix(1.905,0,0,1.905,9.5,7.55464)">
        <rect x="170.144" y="34.492" width="8.792" height="3.22" style="fill:rgb(224,224,224);fill-rule:nonzero;"/>
    </g>
    <g transform="matrix(1.905,0,0,1.905,9.5,7.55464)">
        <rect x="153.04" y="19.204" width="17.468" height="15.292" style="fill:rgb(245,245,245);fill-rule:nonzero;"/>
    </g>
    <g transform="matrix(1.905,0,0,1.905,9.5,7.55464)">
        <rect x="153.04" y="18.072" width="17.468" height="1.132" style="fill:rgb(230,230,230);fill-rule:nonzero;"/>
    </g>
    <g transform="matrix(1.905,0,0,1.905,9.5,7.55464)">
        <rect x="152.876" y="20.9" width="15.432" height="8.616" style="fill:rgb(229,229,229);fill-rule:nonzero;"/>
    </g>
    <g transform="matrix(1.905,0,0,1.905,9.5,7.55464)">
        <rect x="94.424" y="27.06" width="26.292" height="7.432" style="fill:rgb(245,245,245);fill-rule:nonzero;"/>
    </g>
    <g transform="matrix(1.905,0,0,1.905,9.5,7.55464)">
        <rect x="94.424" y="26.512" width="26.292" height="0.552" style="fill:rgb(230,230,230);fill-rule:nonzero;"/>
    </g>
    <g transform="matrix(1.905,0,0,1.905,9.5,7.55464)">
        <rect x="94.172" y="27.884" width="23.232" height="4.188" style="fill:rgb(229,229,229);fill-rule:nonzero;"/>
    </g>
    <g transform="matrix(1.905,0,0,1.905,9.5,7.55464)">
        <rect x="137.656" y="24.924" width="12.6" height="9.568" style="fill:rgb(245,245,245);fill-rule:nonzero;"/>
    </g>
    <g transform="matrix(1.905,0,0,1.905,9.5,7.55464)">
        <rect x="137.656" y="23.792" width="12.6" height="1.132" style="fill:rgb(230,230,230);fill-rule:nonzero;"/>
    </g>
    <g transform="matrix(1.905,0,0,1.905,9.5,7.55464)">
        <rect x="137.536" y="26.62" width="11.136" height="5.78" style="fill:rgb(250,250,250);fill-rule:nonzero;"/>
    </g>
    <g transform="matrix(1.905,0,0,1.905,9.5,7.55464)">
        <path d="M142.848,23.792C142.74,24.8 141.832,28.664 143.612,27.976C145.392,27.288 146.52,26.88 146.88,28.6C147.24,30.32 149.792,28.444 149.056,23.8L142.848,23.792Z" style="fill:rgb(224,224,224);fill-rule:nonzero;"/>
    </g>
    <g transform="matrix(1.905,0,0,1.905,9.5,7.55464)">
        <path d="M145.168,28.4C143.304,28.4 143.7,29.796 144.656,29.4C145.612,29.004 145.856,28.4 145.168,28.4Z" style="fill:rgb(224,224,224);fill-rule:nonzero;"/>
    </g>
    <g transform="matrix(1.905,0,0,1.905,9.5,7.55464)">
        <rect x="28.528" y="33.096" width="15.136" height="21.676" style="fill:rgb(245,245,245);fill-rule:nonzero;"/>
    </g>
    <g transform="matrix(1.905,0,0,1.905,9.5,7.55464)">
        <rect x="28.528" y="31.492" width="15.136" height="1.604" style="fill:rgb(230,230,230);fill-rule:nonzero;"/>
    </g>
    <g transform="matrix(1.905,0,0,1.905,9.5,7.55464)">
        <rect x="28.384" y="35.5" width="13.372" height="12.216" style="fill:rgb(229,229,229);fill-rule:nonzero;"/>
    </g>
    <g transform="matrix(1.905,0,0,1.905,9.5,7.55464)">
        <rect x="37.264" y="75.788" width="10.92" height="13.564" style="fill:rgb(245,245,245);fill-rule:nonzero;"/>
    </g>
    <g transform="matrix(1.905,0,0,1.905,9.5,7.55464)">
        <rect x="37.264" y="74.184" width="10.92" height="1.604" style="fill:rgb(230,230,230);fill-rule:nonzero;"/>
    </g>
    <g transform="matrix(1.905,0,0,1.905,9.5,7.55464)">
        <rect x="37.16" y="78.192" width="9.648" height="8.192" style="fill:rgb(250,250,250);fill-rule:nonzero;"/>
    </g>
    <g transform="matrix(1.905,0,0,1.905,9.5,7.55464)">
        <path d="M170.34,52.548L170.34,82.908L165.796,82.908L159.776,53.712L170.34,52.548Z" style="fill:rgb(224,224,224);fill-rule:nonzero;"/>
    </g>
    <g transform="matrix(1.905,0,0,1.905,9.5,7.55464)">
        <path d="M168.036,55.116L161.72,55.116C161.093,55.115 160.48,54.93 159.957,54.584C159.435,54.237 159.025,53.745 158.78,53.168L157.628,50.448C157.424,49.962 157.343,49.434 157.392,48.909C157.441,48.385 157.619,47.881 157.91,47.441C158.201,47.002 158.596,46.641 159.059,46.391C159.523,46.141 160.041,46.01 160.568,46.008L168.036,46.008C168.885,46.008 169.699,46.345 170.299,46.945C170.899,47.545 171.236,48.359 171.236,49.208L171.236,51.928C171.233,52.775 170.894,53.586 170.295,54.183C169.695,54.781 168.883,55.116 168.036,55.116ZM160.568,48.8C160.503,48.801 160.439,48.817 160.382,48.847C160.325,48.878 160.276,48.922 160.24,48.976C160.204,49.03 160.182,49.093 160.176,49.158C160.17,49.222 160.179,49.288 160.204,49.348L161.356,52.068C161.387,52.139 161.438,52.199 161.502,52.242C161.567,52.285 161.643,52.307 161.72,52.308L168.036,52.308C168.142,52.308 168.244,52.266 168.319,52.191C168.394,52.116 168.436,52.014 168.436,51.908L168.436,49.2C168.436,49.094 168.394,48.992 168.319,48.917C168.244,48.842 168.142,48.8 168.036,48.8L160.568,48.8Z" style="fill:rgb(229,229,229);fill-rule:nonzero;"/>
    </g>
    <g transform="matrix(1.905,0,0,1.905,9.5,7.55464)">
        <path d="M100,149.024C142.833,149.024 177.556,146.997 177.556,144.496C177.556,141.995 142.833,139.968 100,139.968C57.167,139.968 22.444,141.995 22.444,144.496C22.444,146.997 57.167,149.024 100,149.024Z" style="fill:rgb(245,245,245);fill-rule:nonzero;"/>
    </g>
    <g transform="matrix(1.905,0,0,1.905,9.5,7.55464)">
        <path d="M114.184,14.748C111.516,17.5 115.172,19.88 116.528,19.688C116.528,19.688 113.6,17.768 114.184,14.748Z" style="fill:rgb(38,50,56);fill-rule:nonzero;"/>
    </g>
    <g transform="matrix(1.905,0,0,1.905,9.5,7.55464)">
        <path d="M113.708,14.424C111.844,17.772 115.988,19.128 117.248,18.592C117.248,18.592 113.932,17.488 113.708,14.424Z" style="fill:rgb(38,50,56);fill-rule:nonzero;"/>
    </g>
    <g transform="matrix(1.905,0,0,1.905,9.5,7.55464)">
        <path d="M120.888,93.732C123.78,76.684 124.888,55.28 124.888,55.28L109.104,57.2C109.104,57.2 110.904,83.568 111.54,95.172C112.2,107.236 112.888,134.744 112.888,134.744L120.196,134.744C120.196,134.744 122.492,108.648 120.888,93.732Z" style="fill:rgb(43,157,157);fill-rule:nonzero;"/>
    </g>
    <g transform="matrix(1.905,0,0,1.905,9.5,7.55464)">
        <path d="M119.6,139.56L120.224,142.96C120.238,143.043 120.234,143.128 120.211,143.209C120.189,143.291 120.148,143.366 120.093,143.43C120.038,143.493 119.97,143.544 119.893,143.579C119.816,143.613 119.732,143.63 119.648,143.628C118.572,143.628 118.048,143.46 116.176,143.428C113.968,143.396 112.124,143.672 109.536,143.628C109.253,143.648 108.973,143.563 108.749,143.388C108.525,143.214 108.374,142.963 108.324,142.684C108.275,142.405 108.33,142.117 108.48,141.876C108.63,141.636 108.864,141.459 109.136,141.38C111.656,140.692 112.736,139.404 113.936,138.648C114.184,137.42 113.584,134.052 113.584,134.052L119.616,134.452C119.506,136.153 119.501,137.859 119.6,139.56Z" style="fill:rgb(38,50,56);fill-rule:nonzero;"/>
    </g>
    <g transform="matrix(1.905,0,0,1.905,9.5,7.55464)">
        <path d="M147.532,139.748L146.072,137.116C145.372,135.452 144.328,132.26 144.328,132.26L138.9,133.672C138.9,133.672 140.396,136.388 140.74,137.672C139.908,138.644 138.784,140.816 136.448,141.348C135.352,141.596 135.436,143.508 136.888,143.632C139.288,143.836 142.112,141.988 144.12,141.552C145.836,141.18 146.084,141.3 147.06,141.072C147.196,141.04 147.322,140.975 147.427,140.881C147.531,140.788 147.61,140.67 147.657,140.539C147.704,140.407 147.717,140.266 147.695,140.127C147.673,139.989 147.617,139.859 147.532,139.748Z" style="fill:rgb(38,50,56);fill-rule:nonzero;"/>
    </g>
    <g transform="matrix(1.905,0,0,1.905,9.5,7.55464)">
        <path d="M113.2,135.716L119.92,135.82C120.053,135.822 120.183,135.775 120.284,135.688C120.385,135.601 120.45,135.48 120.468,135.348L120.76,133.128C120.77,133.053 120.763,132.976 120.741,132.903C120.72,132.83 120.683,132.763 120.634,132.705C120.584,132.647 120.524,132.6 120.455,132.566C120.387,132.533 120.312,132.515 120.236,132.512L112.916,132.284C112.837,132.282 112.759,132.297 112.687,132.329C112.614,132.36 112.55,132.406 112.497,132.465C112.444,132.523 112.405,132.592 112.381,132.667C112.357,132.743 112.35,132.822 112.36,132.9L112.668,135.24C112.685,135.37 112.748,135.489 112.846,135.577C112.943,135.664 113.069,135.713 113.2,135.716Z" style="fill:rgb(38,50,56);fill-rule:nonzero;"/>
    </g>
    <g transform="matrix(1.905,0,0,1.905,9.5,7.55464)">
        <path d="M113.2,135.716L119.92,135.82C120.053,135.822 120.183,135.775 120.284,135.688C120.385,135.601 120.45,135.48 120.468,135.348L120.76,133.128C120.77,133.053 120.763,132.976 120.741,132.903C120.72,132.83 120.683,132.763 120.634,132.705C120.584,132.647 120.524,132.6 120.455,132.566C120.387,132.533 120.312,132.515 120.236,132.512L112.916,132.284C112.837,132.282 112.759,132.297 112.687,132.329C112.614,132.36 112.55,132.406 112.497,132.465C112.444,132.523 112.405,132.592 112.381,132.667C112.357,132.743 112.35,132.822 112.36,132.9L112.668,135.24C112.685,135.37 112.748,135.489 112.846,135.577C112.943,135.664 113.069,135.713 113.2,135.716Z" style="fill:white;fill-opacity:0.1;fill-rule:nonzero;"/>
    </g>
    <g transform="matrix(1.905,0,0,1.905,9.5,7.55464)">
        <path d="M134.968,93.252C132.444,76.108 133.064,62.756 129.368,54.74L114.996,56.508C114.996,56.508 122.112,83.184 125.36,94.508C128.608,105.832 138.26,133.672 138.26,133.672L145.2,132.136C145.2,132.136 139.284,106.512 134.968,93.252Z" style="fill:rgb(43,157,157);fill-rule:nonzero;"/>
    </g>
    <g transform="matrix(1.905,0,0,1.905,9.5,7.55464)">
        <path d="M138.58,134.9L145.148,133.472C145.282,133.441 145.398,133.36 145.473,133.245C145.547,133.13 145.574,132.99 145.548,132.856L145.148,130.672C145.119,130.526 145.033,130.397 144.91,130.314C144.786,130.231 144.634,130.2 144.488,130.228L137.312,131.676C137.232,131.691 137.157,131.724 137.092,131.773C137.027,131.823 136.974,131.886 136.938,131.959C136.901,132.032 136.882,132.112 136.882,132.193C136.882,132.275 136.9,132.355 136.936,132.428L137.956,134.592C138.009,134.707 138.1,134.801 138.213,134.857C138.327,134.913 138.456,134.928 138.58,134.9Z" style="fill:rgb(38,50,56);fill-rule:nonzero;"/>
    </g>
    <g transform="matrix(1.905,0,0,1.905,9.5,7.55464)">
        <path d="M138.58,134.9L145.148,133.472C145.282,133.441 145.398,133.36 145.473,133.245C145.547,133.13 145.574,132.99 145.548,132.856L145.148,130.672C145.119,130.526 145.033,130.397 144.91,130.314C144.786,130.231 144.634,130.2 144.488,130.228L137.312,131.676C137.232,131.691 137.157,131.724 137.092,131.773C137.027,131.823 136.974,131.886 136.938,131.959C136.901,132.032 136.882,132.112 136.882,132.193C136.882,132.275 136.9,132.355 136.936,132.428L137.956,134.592C138.009,134.707 138.1,134.801 138.213,134.857C138.327,134.913 138.456,134.928 138.58,134.9Z" style="fill:white;fill-opacity:0.1;fill-rule:nonzero;"/>
    </g>
    <g transform="matrix(1.905,0,0,1.905,9.5,7.55464)">
        <path d="M108.752,36.496C108.496,39.084 108.14,41.596 107.684,44.144C107.448,45.416 107.204,46.688 106.884,47.964C106.586,49.286 106.218,50.59 105.78,51.872C105.66,52.208 105.532,52.548 105.38,52.912C105.225,53.276 105.05,53.631 104.856,53.976C104.49,54.633 104.068,55.258 103.596,55.844C102.724,56.939 101.744,57.944 100.672,58.844C99.649,59.713 98.571,60.515 97.444,61.244C96.332,61.969 95.172,62.619 93.972,63.188C93.671,63.333 93.327,63.363 93.004,63.274C92.682,63.184 92.404,62.98 92.22,62.701C92.037,62.421 91.961,62.084 92.008,61.753C92.054,61.422 92.219,61.119 92.472,60.9L92.524,60.856C94.359,59.294 96.086,57.609 97.692,55.812C98.443,54.965 99.126,54.061 99.736,53.108C100.006,52.672 100.245,52.217 100.452,51.748C100.647,51.292 100.806,50.821 100.928,50.34C101.208,49.276 101.448,48.088 101.66,46.9C101.872,45.712 102.06,44.5 102.232,43.268C102.588,40.832 102.916,38.34 103.232,35.908L103.232,35.88C103.341,35.172 103.72,34.534 104.289,34.099C104.859,33.664 105.574,33.467 106.286,33.548C106.998,33.629 107.65,33.983 108.107,34.535C108.564,35.087 108.789,35.794 108.736,36.508L108.752,36.496Z" style="fill:rgb(255,139,123);fill-rule:nonzero;"/>
    </g>
    <g transform="matrix(1.905,0,0,1.905,9.5,7.55464)">
        <path d="M105.512,30.26C101.72,33.204 100.904,41.86 100.904,41.86L110.336,44.78C111.323,42.376 112.034,39.868 112.456,37.304C113.38,32.192 109.036,27.524 105.512,30.26Z" style="fill:rgb(43,157,157);fill-rule:nonzero;"/>
    </g>
    <g transform="matrix(1.905,0,0,1.905,9.5,7.55464)">
        <path d="M121.096,25.804C117.071,26.088 113.085,26.781 109.2,27.872C107.179,28.449 105.439,29.747 104.312,31.521C103.185,33.295 102.748,35.421 103.084,37.496C104.16,43.944 106.392,46.424 109.084,57.208L129.336,54.74C129.112,49.184 126.724,43.088 126.112,30.28C126.083,29.655 125.929,29.042 125.659,28.477C125.39,27.911 125.011,27.406 124.544,26.989C124.077,26.572 123.531,26.253 122.939,26.049C122.347,25.846 121.721,25.762 121.096,25.804Z" style="fill:rgb(43,157,157);fill-rule:nonzero;"/>
    </g>
    <g transform="matrix(1.905,0,0,1.905,9.5,7.55464)">
        <path d="M114.664,18.236C115.204,21.16 116.664,25.004 117.864,26.464C116.704,28.212 115.132,30.272 111.892,31C108.652,31.728 108.72,29.4 109.316,28.068C112.22,26.768 111.76,25.536 110.604,23.604L114.664,18.236Z" style="fill:rgb(255,139,123);fill-rule:nonzero;"/>
    </g>
    <g transform="matrix(1.905,0,0,1.905,9.5,7.55464)">
        <path d="M113.32,21.544C113.216,21.191 113.082,20.847 112.92,20.516L110.596,23.6C110.99,24.181 111.283,24.825 111.46,25.504C112.62,24.772 113.704,22.86 113.32,21.544Z" style="fill-opacity:0.2;fill-rule:nonzero;"/>
    </g>
    <g transform="matrix(1.905,0,0,1.905,9.5,7.55464)">
        <path d="M102.988,13.288C100.64,15.04 101.276,15.512 101.276,15.512C101.276,15.512 101.088,18.644 105.072,18.952C106.716,15.024 102.988,13.288 102.988,13.288Z" style="fill:rgb(38,50,56);fill-rule:nonzero;"/>
    </g>
    <g transform="matrix(1.905,0,0,1.905,9.5,7.55464)">
        <path d="M112.3,12.964C114.056,16.312 115.256,18.164 114.616,20.816C113.656,24.776 108.748,25.676 106.02,22.916C103.564,20.428 101.104,15.368 103.508,12.196C104.039,11.49 104.74,10.931 105.546,10.571C106.353,10.212 107.238,10.063 108.117,10.14C108.997,10.217 109.842,10.517 110.574,11.011C111.306,11.505 111.9,12.177 112.3,12.964Z" style="fill:rgb(255,139,123);fill-rule:nonzero;"/>
    </g>
    <g transform="matrix(1.905,0,0,1.905,9.5,7.55464)">
        <path d="M108.436,17.32C108.592,17.072 108.795,16.857 109.034,16.687C109.273,16.518 109.542,16.397 109.828,16.332C109.433,16.749 108.96,17.085 108.436,17.32Z" style="fill-opacity:0.2;fill-rule:nonzero;"/>
    </g>
    <g transform="matrix(1.905,0,0,1.905,9.5,7.55464)">
        <path d="M108.692,17.636C108.879,17.444 109.105,17.296 109.355,17.201C109.605,17.105 109.873,17.065 110.14,17.084C109.703,17.37 109.209,17.558 108.692,17.636Z" style="fill-opacity:0.2;fill-rule:nonzero;"/>
    </g>
    <g transform="matrix(1.905,0,0,1.905,9.5,7.55464)">
        <path d="M106.684,20.96C106.132,21.3 104.836,22.864 105.304,23.948C106.504,24.048 110.456,21.948 111.304,21.148C111.076,20.164 108.164,20.044 106.684,20.96Z" style="fill:rgb(38,50,56);fill-rule:nonzero;"/>
    </g>
    <g transform="matrix(1.905,0,0,1.905,9.5,7.55464)">
        <path d="M105.732,18.304C105.732,18.304 106.208,20.144 106.084,21.284C106.828,21.38 107.444,20.652 107.444,20.652L105.732,18.304Z" style="fill:rgb(255,86,82);fill-rule:nonzero;"/>
    </g>
    <g transform="matrix(1.905,0,0,1.905,9.5,7.55464)">
        <path d="M115.472,11.276C115.108,9.408 112.956,8.352 111.872,8.568C112.246,8.46 112.587,8.261 112.866,7.99C113.146,7.719 113.353,7.383 113.472,7.012C113.472,7.012 112.02,8.132 110.672,7.812C110.78,7.452 110.762,7.066 110.621,6.718C110.48,6.369 110.224,6.079 109.896,5.896C110.093,6.453 110.164,7.048 110.104,7.636C110.104,7.636 106.904,5.912 104.452,7.456C101.948,9.056 101.616,12.344 100.004,13.328C99.572,13.612 99.058,13.745 98.543,13.707C98.027,13.67 97.539,13.463 97.152,13.12C97.152,13.12 99.312,16.564 102.836,15.596C107.236,14.396 107.164,12.24 107.164,12.24C107.144,13.179 106.803,14.083 106.196,14.8C108.84,14.104 109.152,12.104 109.152,12.104C108.468,14.504 111.468,16.072 113.4,16.376C114.064,17.32 114.6,15.604 114.6,15.604C115.406,14.315 115.716,12.777 115.472,11.276Z" style="fill:rgb(38,50,56);fill-rule:nonzero;"/>
    </g>
    <g transform="matrix(1.905,0,0,1.905,9.5,7.55464)">
        <path d="M98.132,12.132C101.2,14.428 103.096,10.5 102.736,9.18C102.736,9.2 101.2,12.316 98.132,12.132Z" style="fill:rgb(38,50,56);fill-rule:nonzero;"/>
    </g>
    <g transform="matrix(1.905,0,0,1.905,9.5,7.55464)">
        <path d="M115.412,15.888C115.398,16.784 115.045,17.642 114.424,18.288C113.624,19.088 112.712,18.34 112.52,17.164C112.344,16.104 112.556,14.416 113.568,14.076C114.58,13.736 115.436,14.736 115.412,15.888Z" style="fill:rgb(255,139,123);fill-rule:nonzero;"/>
    </g>
    <g transform="matrix(1.905,0,0,1.905,9.5,7.55464)">
        <path d="M108.064,17.668C108.192,17.944 108.148,18.24 107.964,18.32C107.78,18.4 107.528,18.244 107.4,17.964C107.272,17.684 107.316,17.392 107.5,17.312C107.684,17.232 107.936,17.388 108.064,17.668Z" style="fill:rgb(38,50,56);fill-rule:nonzero;"/>
    </g>
    <g transform="matrix(1.905,0,0,1.905,9.5,7.55464)">
        <path d="M104.712,19.2C104.844,19.476 104.796,19.772 104.616,19.852C104.436,19.932 104.176,19.776 104.048,19.496C103.92,19.216 103.964,18.924 104.148,18.844C104.332,18.764 104.584,18.9 104.712,19.2Z" style="fill:rgb(38,50,56);fill-rule:nonzero;"/>
    </g>
    <g transform="matrix(1.905,0,0,1.905,9.5,7.55464)">
        <path d="M108.312,15.416C108.336,15.397 108.355,15.372 108.368,15.344C108.378,15.322 108.383,15.299 108.383,15.275C108.384,15.251 108.38,15.227 108.371,15.205C108.362,15.183 108.348,15.163 108.331,15.147C108.314,15.13 108.294,15.117 108.272,15.108C108.011,14.987 107.725,14.931 107.438,14.943C107.151,14.954 106.87,15.034 106.62,15.176C106.6,15.189 106.582,15.206 106.569,15.226C106.555,15.245 106.546,15.268 106.541,15.291C106.536,15.315 106.536,15.339 106.541,15.362C106.545,15.386 106.555,15.408 106.568,15.428C106.596,15.467 106.637,15.494 106.684,15.504C106.731,15.514 106.779,15.505 106.82,15.48C107.019,15.37 107.241,15.308 107.469,15.301C107.696,15.293 107.922,15.339 108.128,15.436C108.158,15.449 108.19,15.454 108.223,15.45C108.255,15.447 108.286,15.435 108.312,15.416Z" style="fill:rgb(38,50,56);fill-rule:nonzero;"/>
    </g>
    <g transform="matrix(1.905,0,0,1.905,9.5,7.55464)">
        <path d="M102.76,18.06C102.787,18.049 102.812,18.031 102.831,18.009C102.85,17.987 102.864,17.961 102.872,17.932C102.915,17.711 103.01,17.503 103.149,17.326C103.288,17.148 103.467,17.007 103.672,16.912C103.695,16.905 103.715,16.893 103.733,16.878C103.751,16.862 103.766,16.843 103.776,16.822C103.786,16.8 103.792,16.777 103.792,16.753C103.793,16.73 103.789,16.706 103.78,16.684C103.772,16.662 103.76,16.641 103.744,16.623C103.727,16.606 103.708,16.592 103.687,16.582C103.665,16.572 103.642,16.566 103.618,16.565C103.594,16.564 103.57,16.568 103.548,16.576C103.285,16.688 103.053,16.863 102.872,17.084C102.691,17.306 102.566,17.568 102.508,17.848C102.498,17.896 102.508,17.945 102.534,17.986C102.56,18.027 102.601,18.057 102.648,18.068C102.685,18.077 102.724,18.074 102.76,18.06Z" style="fill:rgb(38,50,56);fill-rule:nonzero;"/>
    </g>
    <g transform="matrix(1.905,0,0,1.905,9.5,7.55464)">
        <path d="M107.308,54.4C106.908,52.708 106.344,50.744 105.832,48.984C105.029,46.261 104.758,43.409 105.032,40.584C105.484,36.028 105.032,30.664 107.072,28.64C107.369,28.406 107.705,28.226 108.064,28.108C108.096,28.099 108.13,28.1 108.161,28.11C108.192,28.121 108.22,28.141 108.239,28.167C108.259,28.194 108.271,28.225 108.272,28.258C108.274,28.291 108.265,28.324 108.248,28.352C107.612,29.312 106.604,31.952 107.228,36.384C112.592,35.812 119.628,33.732 119.628,33.732C119.628,33.732 118.652,28.868 119.332,25.864C119.342,25.817 119.368,25.775 119.405,25.744C119.442,25.714 119.488,25.697 119.536,25.696L120.456,25.652C120.487,25.65 120.519,25.656 120.548,25.668C120.577,25.68 120.603,25.698 120.624,25.722C120.645,25.745 120.661,25.773 120.67,25.803C120.679,25.833 120.681,25.865 120.676,25.896C119.904,30.928 122.248,39.668 127.116,38.916C127.332,40.916 129.824,49.828 129.824,49.828C129.824,49.828 134.34,68.508 135.4,85.2C126.084,90.4 107.728,88.268 107.728,88.268C107.728,88.268 108.348,58.656 107.308,54.4Z" style="fill:rgb(38,50,56);fill-rule:nonzero;"/>
    </g>
    <g transform="matrix(1.905,0,0,1.905,9.5,7.55464)">
        <path d="M147.716,68.513L147.508,68.173C150.476,66.345 151.68,64.221 150.804,62.349C149.736,60.061 145.492,58.525 141.112,59.985C140.204,60.289 139.352,60.621 138.532,60.945C135.16,62.269 132.248,63.413 127.5,61.601L127.64,61.225C132.244,62.981 135.088,61.865 138.384,60.573C139.212,60.249 140.068,59.913 140.984,59.605C145.636,58.057 150.004,59.685 151.168,62.177C152.136,64.245 150.88,66.557 147.716,68.513Z" style="fill:rgb(43,157,157);fill-rule:nonzero;"/>
    </g>
    <g transform="matrix(1.905,0,0,1.905,9.5,7.55464)">
        <path d="M108.948,42.724C110.836,42.448 116.148,41.612 120.028,40.452C120.123,40.422 120.224,40.42 120.32,40.444C120.416,40.469 120.503,40.52 120.571,40.591C120.64,40.663 120.687,40.752 120.708,40.849C120.729,40.946 120.722,41.047 120.688,41.14C119.26,44.984 116.596,46.936 114.388,47.216C111.06,47.64 109.22,44.816 108.548,43.488C108.51,43.413 108.49,43.329 108.49,43.245C108.49,43.16 108.511,43.077 108.55,43.002C108.589,42.928 108.646,42.863 108.715,42.815C108.784,42.766 108.864,42.735 108.948,42.724Z" style="fill:white;fill-opacity:0.2;fill-rule:nonzero;"/>
    </g>
    <g transform="matrix(1.905,0,0,1.905,9.5,7.55464)">
        <path d="M125.084,56.12C123.058,55.652 120.987,55.408 118.908,55.392C115.848,55.392 112.34,56.108 113.544,57.3C113.693,57.435 113.812,57.6 113.89,57.786C113.969,57.971 114.007,58.171 114,58.372C113.881,59.805 114.104,61.246 114.652,62.576C114.785,62.859 114.998,63.097 115.264,63.261C115.531,63.424 115.839,63.506 116.152,63.496L126.736,63.496C127.085,63.513 127.429,63.413 127.714,63.211C127.999,63.01 128.208,62.719 128.308,62.384C128.852,59.86 126.952,56.572 125.084,56.12ZM125.764,59.36C123.212,59.136 118.212,58.904 117.2,58.904C116.188,58.904 115.556,56.612 117.416,56.608C121.672,56.608 123.936,57.056 125.072,57.536C126.208,58.016 128.316,59.6 125.764,59.36Z" style="fill:rgb(43,157,157);fill-rule:nonzero;"/>
    </g>
    <g transform="matrix(1.905,0,0,1.905,9.5,7.55464)">
        <path d="M125.084,56.12C123.058,55.652 120.987,55.408 118.908,55.392C115.848,55.392 112.34,56.108 113.544,57.3C113.693,57.435 113.812,57.6 113.89,57.786C113.969,57.971 114.007,58.171 114,58.372C113.881,59.805 114.104,61.246 114.652,62.576C114.785,62.859 114.998,63.097 115.264,63.261C115.531,63.424 115.839,63.506 116.152,63.496L126.736,63.496C127.085,63.513 127.429,63.413 127.714,63.211C127.999,63.01 128.208,62.719 128.308,62.384C128.852,59.86 126.952,56.572 125.084,56.12ZM125.764,59.36C123.212,59.136 118.212,58.904 117.2,58.904C116.188,58.904 115.556,56.612 117.416,56.608C121.672,56.608 123.936,57.056 125.072,57.536C126.208,58.016 128.316,59.6 125.764,59.36Z" style="fill:white;fill-opacity:0.4;fill-rule:nonzero;"/>
    </g>
    <g transform="matrix(1.905,0,0,1.905,9.5,7.55464)">
        <path d="M127.432,64.468L114.876,64.468C114.752,64.465 114.634,64.415 114.545,64.328C114.457,64.241 114.405,64.124 114.4,64C114.4,63.871 114.451,63.746 114.543,63.655C114.634,63.563 114.759,63.512 114.888,63.512L127.444,63.512C127.571,63.515 127.692,63.568 127.781,63.659C127.87,63.75 127.92,63.873 127.92,64C127.915,64.126 127.861,64.245 127.77,64.332C127.679,64.42 127.558,64.468 127.432,64.468Z" style="fill:rgb(43,157,157);fill-rule:nonzero;"/>
    </g>
    <g transform="matrix(1.905,0,0,1.905,9.5,7.55464)">
        <path d="M122.504,59.912L116.668,59.912C116.58,59.912 116.508,59.984 116.508,60.072C116.508,60.16 116.58,60.232 116.668,60.232L122.504,60.232C122.592,60.232 122.664,60.16 122.664,60.072C122.664,59.984 122.592,59.912 122.504,59.912Z" style="fill:rgb(43,157,157);fill-rule:nonzero;"/>
    </g>
    <g transform="matrix(1.905,0,0,1.905,9.5,7.55464)">
        <path d="M122.504,60.64L116.668,60.64C116.58,60.64 116.508,60.712 116.508,60.8C116.508,60.888 116.58,60.96 116.668,60.96L122.504,60.96C122.592,60.96 122.664,60.888 122.664,60.8C122.664,60.712 122.592,60.64 122.504,60.64Z" style="fill:rgb(43,157,157);fill-rule:nonzero;"/>
    </g>
    <g transform="matrix(1.905,0,0,1.905,9.5,7.55464)">
        <path d="M122.504,61.368L116.668,61.368C116.58,61.368 116.508,61.44 116.508,61.528C116.508,61.616 116.58,61.688 116.668,61.688L122.504,61.688C122.592,61.688 122.664,61.616 122.664,61.528C122.664,61.44 122.592,61.368 122.504,61.368Z" style="fill:rgb(43,157,157);fill-rule:nonzero;"/>
    </g>
    <g transform="matrix(1.905,0,0,1.905,9.5,7.55464)">
        <path d="M122.504,62.096L116.668,62.096C116.58,62.096 116.508,62.168 116.508,62.256C116.508,62.344 116.58,62.416 116.668,62.416L122.504,62.416C122.592,62.416 122.664,62.344 122.664,62.256C122.664,62.168 122.592,62.096 122.504,62.096Z" style="fill:rgb(43,157,157);fill-rule:nonzero;"/>
    </g>
    <g transform="matrix(1.905,0,0,1.905,9.5,7.55464)">
        <path d="M127.084,64.468L115.224,64.468L114.804,65.16L127.5,65.16L127.084,64.468Z" style="fill:white;fill-rule:nonzero;"/>
    </g>
    <g transform="matrix(1.905,0,0,1.905,9.5,7.55464)">
        <path d="M92.708,60.296L90.308,61.452C89.443,61.875 88.662,62.453 88.004,63.156L87.428,63.772C87.144,64.076 87.272,64.672 87.7,65.008L89.268,66.24C89.374,66.337 89.506,66.401 89.648,66.425C89.79,66.449 89.936,66.432 90.068,66.376L91.556,65.576C91.556,65.576 94.756,64.456 94.252,61.884L92.708,60.296Z" style="fill:rgb(43,157,157);fill-rule:nonzero;"/>
    </g>
    <g transform="matrix(1.905,0,0,1.905,9.5,7.55464)">
        <path d="M91.116,61.072C91.116,61.072 93.26,60.104 94.544,58.644C96.144,60.224 96.892,61.808 96.944,62.4C95.484,62.956 94.316,63.356 93.588,63.58C92.86,63.804 91.08,62.86 91.116,61.072Z" style="fill:rgb(43,157,157);fill-rule:nonzero;"/>
    </g>
    <g transform="matrix(1.905,0,0,1.905,9.5,7.55464)">
        <path d="M126.92,29.68C127.208,29.948 127.42,30.16 127.656,30.4C127.892,30.64 128.112,30.868 128.336,31.104C128.78,31.576 129.204,32.064 129.624,32.556C130.464,33.544 131.252,34.556 132,35.644C133.553,37.823 134.807,40.2 135.728,42.712C135.836,43.04 135.948,43.364 136.044,43.704L136.116,43.956L136.156,44.088L136.204,44.288C136.271,44.551 136.316,44.818 136.34,45.088C136.426,46.148 136.208,47.211 135.712,48.152C134.93,49.542 133.81,50.713 132.456,51.556C131.331,52.294 130.134,52.917 128.884,53.416C127.68,53.913 126.439,54.315 125.172,54.616C124.848,54.694 124.507,54.652 124.212,54.498C123.917,54.344 123.687,54.089 123.565,53.779C123.443,53.469 123.438,53.126 123.549,52.812C123.661,52.498 123.882,52.236 124.172,52.072L124.236,52.036C126.236,50.896 128.3,49.616 129.836,48.188C130.504,47.635 131.037,46.937 131.396,46.148C131.458,45.987 131.458,45.809 131.396,45.648C131.386,45.621 131.374,45.594 131.36,45.568L131.36,45.544L131.328,45.46L131.256,45.276C131.168,45.032 131.06,44.784 130.96,44.544C130.029,42.525 128.873,40.617 127.516,38.856C126.836,37.944 126.108,37.052 125.36,36.176C124.984,35.74 124.6,35.312 124.216,34.884L123.636,34.256L123.08,33.676L123.004,33.6C122.522,33.075 122.261,32.384 122.275,31.671C122.29,30.958 122.578,30.278 123.081,29.772C123.583,29.266 124.261,28.974 124.974,28.955C125.687,28.936 126.38,29.193 126.908,29.672L126.92,29.68Z" style="fill:rgb(255,139,123);fill-rule:nonzero;"/>
    </g>
    <g transform="matrix(1.905,0,0,1.905,9.5,7.55464)">
        <path d="M121.6,25.796C128.044,25.572 131.936,32.772 131.936,32.772L126.4,39.816C126.4,39.816 123.6,38.884 121.748,34.5C120.844,32.4 120.36,26.092 121.6,25.796Z" style="fill:rgb(43,157,157);fill-rule:nonzero;"/>
    </g>
    <g transform="matrix(1.905,0,0,1.905,9.5,7.55464)">
        <path d="M125.064,55.684C125.064,55.684 127.972,54.864 129.824,54.272C129.024,52.188 126.804,50.644 126.34,50.272C125.048,51.148 123.38,52.348 122.88,52.928C122.38,53.508 123.408,55 125.064,55.684Z" style="fill:rgb(43,157,157);fill-rule:nonzero;"/>
    </g>
    <g transform="matrix(1.905,0,0,1.905,9.5,7.55464)">
        <path d="M126.2,52.944L124.124,51.888L122.756,52.832C121.626,53.603 120.678,54.612 119.98,55.788L119.848,56.016C119.76,56.162 119.704,56.326 119.684,56.496C119.664,56.665 119.68,56.837 119.732,57C119.784,57.163 119.87,57.313 119.985,57.44C120.099,57.567 120.239,57.668 120.396,57.736L121.856,58.464C122.136,58.604 122.454,58.646 122.76,58.583C123.067,58.52 123.343,58.355 123.544,58.116L124.708,56.676C124.708,56.676 127.264,54.424 126.2,52.944Z" style="fill:rgb(43,157,157);fill-rule:nonzero;"/>
    </g>
    <g transform="matrix(1.905,0,0,1.905,9.5,7.55464)">
        <path d="M110.216,16.548C110.357,16.822 110.443,17.122 110.467,17.429C110.491,17.737 110.454,18.046 110.358,18.339C110.261,18.632 110.107,18.903 109.905,19.136C109.703,19.369 109.457,19.559 109.18,19.696C108.515,20.039 107.746,20.122 107.024,19.928C106.524,19.784 106.104,19.776 106.08,20.296C106.089,20.493 106.041,20.688 105.941,20.858C105.841,21.028 105.693,21.165 105.516,21.252C104.564,21.628 103.352,21.18 102.716,19.964C102.516,19.564 102.348,18.96 102.552,18.632L109.352,15.604C109.719,15.836 110.017,16.162 110.216,16.548Z" style="fill:rgb(43,157,157);fill-opacity:0.4;fill-rule:nonzero;"/>
    </g>
    <g transform="matrix(1.905,0,0,1.905,9.5,7.55464)">
        <path d="M111.572,14.76L102.492,19.072C102.428,19.102 102.355,19.106 102.289,19.083C102.222,19.06 102.167,19.011 102.136,18.948C102.106,18.884 102.102,18.81 102.126,18.744C102.15,18.677 102.2,18.622 102.264,18.592L111.344,14.276C111.408,14.247 111.481,14.244 111.548,14.268C111.614,14.292 111.669,14.341 111.7,14.404C111.715,14.436 111.724,14.47 111.726,14.505C111.728,14.541 111.723,14.576 111.711,14.609C111.699,14.642 111.681,14.673 111.657,14.699C111.633,14.725 111.604,14.745 111.572,14.76Z" style="fill:rgb(38,50,56);fill-rule:nonzero;"/>
    </g>
    <g transform="matrix(1.905,0,0,1.905,9.5,7.55464)">
        <rect x="84.628" y="83.396" width="2.36" height="61.032" style="fill:rgb(43,157,157);fill-rule:nonzero;"/>
    </g>
    <g transform="matrix(1.905,0,0,1.905,9.5,7.55464)">
        <rect x="84.628" y="83.396" width="2.36" height="61.032" style="fill:white;fill-opacity:0.1;fill-rule:nonzero;"/>
    </g>
    <g transform="matrix(1.905,0,0,1.905,9.5,7.55464)">
        <rect x="55.368" y="67.252" width="101.564" height="5.524" style="fill:rgb(43,157,157);fill-rule:nonzero;"/>
    </g>
    <g transform="matrix(1.905,0,0,1.905,9.5,7.55464)">
        <rect x="59.428" y="72.776" width="93.448" height="10.62" style="fill:rgb(43,157,157);fill-rule:nonzero;"/>
    </g>
    <g transform="matrix(1.905,0,0,1.905,9.5,7.55464)">
        <rect x="59.428" y="72.776" width="93.448" height="10.62" style="fill:white;fill-opacity:0.3;fill-rule:nonzero;"/>
    </g>
    <g transform="matrix(1.905,0,0,1.905,9.5,7.55464)">
        <rect x="60.04" y="102.368" width="92.22" height="8.212" style="fill:rgb(43,157,157);fill-rule:nonzero;"/>
    </g>
    <g transform="matrix(1.905,0,0,1.905,9.5,7.55464)">
        <rect x="60.04" y="102.368" width="92.22" height="8.212" style="fill:white;fill-opacity:0.3;fill-rule:nonzero;"/>
    </g>
    <g transform="matrix(1.905,0,0,1.905,9.5,7.55464)">
        <rect x="59.428" y="83.396" width="2.36" height="61.032" style="fill:rgb(43,157,157);fill-rule:nonzero;"/>
    </g>
    <g transform="matrix(1.905,0,0,1.905,9.5,7.55464)">
        <rect x="59.428" y="83.396" width="2.36" height="61.032" style="fill:white;fill-opacity:0.3;fill-rule:nonzero;"/>
    </g>
    <g transform="matrix(1.905,0,0,1.905,9.5,7.55464)">
        <rect x="125.312" y="83.396" width="2.36" height="61.032" style="fill:rgb(43,157,157);fill-rule:nonzero;"/>
    </g>
    <g transform="matrix(1.905,0,0,1.905,9.5,7.55464)">
        <rect x="125.312" y="83.396" width="2.36" height="61.032" style="fill:white;fill-opacity:0.3;fill-rule:nonzero;"/>
    </g>
    <g transform="matrix(1.905,0,0,1.905,9.5,7.55464)">
        <rect x="150.516" y="83.396" width="2.36" height="61.032" style="fill:rgb(43,157,157);fill-rule:nonzero;"/>
    </g>
    <g transform="matrix(1.905,0,0,1.905,9.5,7.55464)">
        <rect x="150.516" y="83.396" width="2.36" height="61.032" style="fill:white;fill-opacity:0.1;fill-rule:nonzero;"/>
    </g>
    <g transform="matrix(1.905,0,0,1.905,9.5,7.55464)">
        <rect x="130.86" y="67.252" width="26.076" height="5.524" style="fill-opacity:0.3;fill-rule:nonzero;"/>
    </g>
    <g transform="matrix(1.905,0,0,1.905,9.5,7.55464)">
        <rect x="64.18" y="65.16" width="69.356" height="2.092" style="fill:rgb(43,157,157);fill-rule:nonzero;"/>
    </g>
    <g transform="matrix(1.905,0,0,1.905,9.5,7.55464)">
        <rect x="64.18" y="65.16" width="69.356" height="2.092" style="fill:white;fill-opacity:0.7;fill-rule:nonzero;"/>
    </g>
    <g transform="matrix(1.905,0,0,1.905,9.5,7.55464)">
        <rect x="119.476" y="65.16" width="14.06" height="2.092" style="fill:rgb(43,157,157);fill-opacity:0.3;fill-rule:nonzero;"/>
    </g>
    <g transform="matrix(1.905,0,0,1.905,9.5,7.55464)">
        <rect x="127.672" y="72.776" width="25.204" height="10.62" style="fill:rgb(43,157,157);fill-opacity:0.7;fill-rule:nonzero;"/>
    </g>
    <g transform="matrix(1.905,0,0,1.905,9.5,7.55464)">
        <rect x="127.672" y="102.368" width="22.844" height="8.212" style="fill:rgb(43,157,157);fill-opacity:0.7;fill-rule:nonzero;"/>
    </g>
    <g transform="matrix(1.905,0,0,1.905,9.5,7.55464)">
        <rect x="65.488" y="67.252" width="8.692" height="16.144" style="fill-opacity:0.2;fill-rule:nonzero;"/>
    </g>
    <g transform="matrix(1.905,0,0,1.905,9.5,7.55464)">
        <path d="M76.42,32.376L62.508,32.376L55.368,145.572L69.28,145.572L76.42,32.376Z" style="fill:rgb(43,157,157);fill-rule:nonzero;"/>
    </g>
    <g transform="matrix(1.905,0,0,1.905,9.5,7.55464)">
        <path d="M76.42,32.376L62.508,32.376L55.368,145.572L69.28,145.572L76.42,32.376Z" style="fill:white;fill-opacity:0.7;fill-rule:nonzero;"/>
    </g>
    <g transform="matrix(1.905,0,0,1.905,9.5,7.55464)">
        <path d="M76.42,32.376L74.752,32.376L67.612,145.572L69.28,145.572L76.42,32.376Z" style="fill:rgb(43,157,157);fill-opacity:0.3;fill-rule:nonzero;"/>
    </g>
    <g transform="matrix(1.905,0,0,1.905,9.5,7.55464)">
        <path d="M62.364,55.248L61.064,55.248L55.368,145.572L60.776,145.572L62.364,55.248Z" style="fill:rgb(43,157,157);fill-opacity:0.2;fill-rule:nonzero;"/>
    </g>
    <g transform="matrix(1.905,0,0,1.905,9.5,7.55464)">
        <path d="M61.384,143.388C60.908,143.395 60.437,143.29 60.009,143.081C59.581,142.873 59.208,142.567 58.92,142.188C58.402,141.51 58.02,140.739 57.796,139.916C57.14,137.452 57.624,134.808 58.092,132.256L58.216,131.58C59.968,121.836 60.012,111.848 60.052,102.188C60.088,93.076 60.128,83.652 61.6,74.432C61.608,74.388 61.629,74.348 61.66,74.316C61.943,74.083 62.304,73.965 62.671,73.987C63.037,74.008 63.382,74.167 63.636,74.432C64.062,74.936 64.328,75.556 64.4,76.212C65.232,80.492 64.84,85.012 64.46,89.352C64.352,90.608 64.236,91.908 64.156,93.18C63.864,97.736 63.956,102.38 64.044,106.84C64.164,112.948 64.288,119.26 63.444,125.472C63.352,126.156 63.244,126.84 63.14,127.524C62.696,130.42 62.236,133.412 62.74,136.292C62.892,137.147 62.892,138.021 62.74,138.876C62.686,139.212 62.502,139.513 62.228,139.715C61.955,139.917 61.613,140.003 61.276,139.956C61.125,139.943 60.978,139.9 60.844,139.829C60.71,139.758 60.591,139.661 60.495,139.544C60.399,139.426 60.328,139.291 60.286,139.145C60.243,138.999 60.23,138.847 60.248,138.696L61.728,115.38C62.128,108.98 62.556,102.376 61.148,96.12C61.142,96.094 61.142,96.067 61.146,96.04C61.151,96.014 61.161,95.988 61.176,95.966C61.19,95.943 61.209,95.923 61.231,95.908C61.253,95.893 61.278,95.882 61.304,95.876C61.33,95.87 61.357,95.87 61.384,95.874C61.41,95.879 61.436,95.889 61.458,95.903C61.481,95.918 61.501,95.937 61.516,95.959C61.531,95.981 61.542,96.006 61.548,96.032C62.968,102.344 62.544,108.984 62.136,115.408L60.652,138.72C60.639,138.82 60.647,138.921 60.675,139.018C60.702,139.115 60.749,139.206 60.813,139.284C60.877,139.362 60.955,139.426 61.045,139.473C61.134,139.52 61.232,139.548 61.332,139.556C61.449,139.574 61.568,139.569 61.683,139.541C61.798,139.512 61.906,139.462 62.002,139.391C62.097,139.321 62.177,139.233 62.238,139.131C62.299,139.03 62.339,138.917 62.356,138.8C62.5,137.993 62.5,137.167 62.356,136.36C61.864,133.416 62.328,130.392 62.776,127.464C62.88,126.78 62.984,126.1 63.08,125.416C63.92,119.236 63.796,112.94 63.676,106.848C63.588,102.364 63.496,97.728 63.788,93.156C63.872,91.88 63.984,90.576 64.092,89.32C64.472,84.988 64.86,80.52 64.04,76.288C63.977,75.712 63.75,75.166 63.384,74.716C63.209,74.536 62.977,74.423 62.727,74.395C62.478,74.367 62.226,74.427 62.016,74.564C60.56,83.732 60.52,93.116 60.484,102.188C60.444,111.868 60.4,121.872 58.64,131.648L58.516,132.328C58.056,134.84 57.58,137.436 58.216,139.812C58.424,140.586 58.782,141.311 59.268,141.948C59.61,142.394 60.083,142.723 60.62,142.889C61.158,143.056 61.733,143.051 62.268,142.876C62.904,142.707 63.474,142.348 63.903,141.849C64.331,141.349 64.598,140.731 64.668,140.076C64.816,138.664 64.848,137.2 64.872,135.908L65.232,117.812C65.392,109.764 65.56,101.44 65.588,93.26C65.62,85.584 65.532,77.808 65.332,70.152C65.354,69.523 65.259,68.895 65.052,68.3C64.916,68.017 64.751,67.749 64.56,67.5C64.365,67.233 64.193,66.949 64.048,66.652C63.592,65.64 63.768,64.492 63.936,63.384C64.033,62.842 64.093,62.294 64.116,61.744C64.136,60.492 63.736,59.344 63.316,58.144C62.914,57.116 62.646,56.04 62.516,54.944C62.372,53.164 62.94,51.392 63.492,49.684C63.958,48.402 64.28,47.073 64.452,45.72C64.513,44.571 64.456,43.418 64.284,42.28C64.124,41.18 64.062,40.067 64.1,38.956C64.256,36.52 65.828,33.892 68.192,33.724C68.722,33.699 69.249,33.819 69.717,34.069C70.184,34.32 70.575,34.693 70.848,35.148C71.168,35.613 71.357,36.156 71.393,36.719C71.43,37.283 71.313,37.846 71.056,38.348C71.031,38.395 70.988,38.429 70.937,38.444C70.886,38.459 70.831,38.453 70.784,38.428C70.737,38.403 70.703,38.36 70.688,38.309C70.673,38.258 70.679,38.203 70.704,38.156C70.923,37.72 71.02,37.233 70.986,36.746C70.953,36.259 70.789,35.79 70.512,35.388C70.28,34.992 69.943,34.666 69.539,34.447C69.135,34.228 68.679,34.123 68.22,34.144C66.104,34.296 64.62,36.784 64.5,39.004C64.465,40.09 64.527,41.177 64.684,42.252C64.859,43.417 64.915,44.596 64.852,45.772C64.677,47.156 64.348,48.517 63.872,49.828C63.308,51.576 62.776,53.228 62.916,54.932C63.05,55.991 63.319,57.029 63.716,58.02C64.116,59.22 64.556,60.452 64.536,61.772C64.515,62.342 64.453,62.91 64.352,63.472C64.184,64.568 64.024,65.604 64.432,66.512C64.567,66.792 64.726,67.06 64.908,67.312C65.115,67.59 65.294,67.889 65.44,68.204C65.669,68.845 65.775,69.524 65.752,70.204C65.952,77.868 66.04,85.648 66.008,93.328C65.98,101.508 65.812,109.832 65.652,117.884L65.292,135.98C65.268,137.28 65.236,138.752 65.088,140.184C65.006,140.916 64.704,141.606 64.223,142.165C63.742,142.723 63.104,143.123 62.392,143.312C62.062,143.386 61.722,143.412 61.384,143.388Z" style="fill:rgb(43,157,157);fill-opacity:0.1;fill-rule:nonzero;"/>
    </g>
    <g transform="matrix(1.905,0,0,1.905,9.5,7.55464)">
        <path d="M69.096,84.716C68.833,84.724 68.575,84.635 68.374,84.465C68.172,84.296 68.04,84.057 68.004,83.796C67.392,80.268 67.524,76.624 67.748,72.572L67.748,72.512C67.906,70.758 67.882,68.993 67.676,67.244C67.536,66.426 67.355,65.616 67.132,64.816C67.016,64.368 66.896,63.92 66.796,63.468C66.436,61.738 66.179,59.988 66.024,58.228L65.44,52.84C65.26,51.176 65.016,48.9 66.096,47.068C66.176,46.89 66.295,46.732 66.445,46.606C66.594,46.481 66.771,46.391 66.96,46.344C67.169,46.337 67.377,46.384 67.564,46.479C67.751,46.574 67.91,46.715 68.028,46.888C69.396,48.488 70.06,50.852 69.996,53.892C69.972,55.024 69.864,56.168 69.756,57.28C69.606,58.615 69.526,59.957 69.516,61.3C69.515,61.352 69.494,61.403 69.458,61.44C69.422,61.478 69.372,61.501 69.32,61.504C69.293,61.505 69.267,61.5 69.242,61.49C69.218,61.48 69.195,61.466 69.176,61.447C69.157,61.428 69.142,61.406 69.132,61.382C69.121,61.357 69.116,61.331 69.116,61.304C69.125,59.946 69.206,58.589 69.36,57.24C69.464,56.14 69.572,55 69.596,53.884C69.656,50.944 69.028,48.684 67.724,47.144C67.464,46.84 67.232,46.704 67.02,46.744C66.808,46.784 66.62,46.956 66.44,47.276C65.504,48.876 65.64,50.792 65.84,52.8L66.42,58.188C66.573,59.935 66.828,61.671 67.184,63.388C67.288,63.836 67.404,64.276 67.516,64.72C67.746,65.532 67.931,66.356 68.072,67.188C68.281,68.966 68.307,70.761 68.148,72.544L68.148,72.6C67.928,76.628 67.792,80.248 68.396,83.736C68.418,83.912 68.508,84.072 68.648,84.182C68.787,84.292 68.964,84.343 69.14,84.324C69.349,84.315 69.548,84.228 69.696,84.08C69.844,83.932 69.931,83.733 69.94,83.524C70.001,81.75 69.926,79.974 69.716,78.212C69.648,77.472 69.576,76.708 69.528,75.964C69.172,70.592 69.98,65.104 70.76,59.796C71.208,56.748 71.668,53.596 71.908,50.5C72.007,49.488 72.022,48.47 71.952,47.456C71.773,46.006 71.439,44.579 70.956,43.2C70.92,43.08 70.872,42.96 70.804,42.936C70.795,42.931 70.784,42.929 70.774,42.929C70.764,42.929 70.753,42.931 70.744,42.936C70.636,42.992 70.536,43.308 70.472,43.52C70.44,43.612 70.412,43.708 70.38,43.788C70.243,44.078 70.013,44.314 69.727,44.459C69.441,44.603 69.115,44.649 68.8,44.588C68.518,44.521 68.252,44.398 68.018,44.227C67.784,44.056 67.586,43.84 67.436,43.592C67.071,43.002 66.833,42.342 66.738,41.654C66.643,40.967 66.693,40.267 66.884,39.6C67.285,38.231 68.024,36.985 69.032,35.976C69.061,35.946 69.098,35.925 69.139,35.917C69.18,35.91 69.222,35.915 69.26,35.932C69.563,36.081 69.8,36.336 69.926,36.649C70.052,36.963 70.057,37.311 69.94,37.628C69.932,37.653 69.918,37.677 69.901,37.697C69.883,37.717 69.862,37.734 69.838,37.745C69.814,37.757 69.787,37.764 69.761,37.765C69.734,37.766 69.707,37.763 69.682,37.753C69.657,37.744 69.634,37.73 69.614,37.712C69.595,37.694 69.579,37.672 69.568,37.648C69.557,37.623 69.551,37.597 69.55,37.57C69.55,37.543 69.554,37.517 69.564,37.492C69.636,37.292 69.641,37.073 69.578,36.87C69.515,36.667 69.388,36.489 69.216,36.364C68.307,37.302 67.639,38.447 67.272,39.7C67.091,40.316 67.041,40.962 67.126,41.598C67.211,42.234 67.428,42.845 67.764,43.392C68.011,43.803 68.409,44.101 68.872,44.224C69.097,44.267 69.33,44.235 69.535,44.133C69.74,44.032 69.906,43.865 70.008,43.66C70.036,43.584 70.06,43.5 70.088,43.412C70.196,43.072 70.304,42.724 70.56,42.592C70.675,42.536 70.807,42.528 70.928,42.568C71.032,42.617 71.122,42.69 71.192,42.782C71.261,42.873 71.308,42.979 71.328,43.092C71.822,44.494 72.164,45.945 72.348,47.42C72.422,48.457 72.408,49.498 72.308,50.532C72.068,53.64 71.604,56.8 71.156,59.852C70.38,65.14 69.576,70.608 69.928,75.94C69.976,76.676 70.044,77.44 70.116,78.176C70.327,79.96 70.402,81.757 70.34,83.552C70.323,83.863 70.191,84.156 69.969,84.373C69.746,84.591 69.451,84.717 69.14,84.728L69.096,84.716Z" style="fill:rgb(43,157,157);fill-opacity:0.1;fill-rule:nonzero;"/>
    </g>
    <g transform="matrix(1.905,0,0,1.905,9.5,7.55464)">
        <path d="M67.476,135.108C67.431,135.107 67.388,135.092 67.353,135.063C67.318,135.035 67.294,134.996 67.284,134.952C66.778,132.963 66.428,130.936 66.24,128.892C66.159,127.434 66.167,125.973 66.264,124.516C66.484,120.116 66.928,115.656 67.36,111.316C68.104,103.82 68.876,96.068 68.492,88.536C68.49,88.51 68.494,88.483 68.503,88.459C68.511,88.434 68.525,88.411 68.542,88.391C68.56,88.371 68.581,88.355 68.604,88.344C68.628,88.332 68.654,88.326 68.68,88.324C68.733,88.323 68.785,88.342 68.824,88.378C68.864,88.414 68.888,88.463 68.892,88.516C69.292,96.08 68.492,103.844 67.756,111.352C67.328,115.672 66.884,120.152 66.664,124.516C66.567,125.957 66.559,127.402 66.64,128.844C66.828,130.868 67.173,132.874 67.672,134.844C67.678,134.869 67.679,134.895 67.675,134.921C67.67,134.946 67.661,134.971 67.647,134.993C67.634,135.015 67.616,135.034 67.594,135.049C67.573,135.064 67.549,135.074 67.524,135.08L67.476,135.108Z" style="fill:rgb(43,157,157);fill-opacity:0.1;fill-rule:nonzero;"/>
    </g>
    <g transform="matrix(1.905,0,0,1.905,9.5,7.55464)">
        <path d="M64.208,50.276L47.048,50.276L35.76,146L52.92,146L64.208,50.276Z" style="fill:rgb(43,157,157);fill-rule:nonzero;"/>
    </g>
    <g transform="matrix(1.905,0,0,1.905,9.5,7.55464)">
        <path d="M64.208,50.276L47.048,50.276L35.76,146L52.92,146L64.208,50.276Z" style="fill:white;fill-opacity:0.7;fill-rule:nonzero;"/>
    </g>
    <g transform="matrix(1.905,0,0,1.905,9.5,7.55464)">
        <path d="M64.208,50.276L62.148,50.276L50.86,146L52.92,146L64.208,50.276Z" style="fill:rgb(43,157,157);fill-opacity:0.3;fill-rule:nonzero;"/>
    </g>
    <g transform="matrix(1.905,0,0,1.905,9.5,7.55464)">
        <path d="M43.328,144.184L43.092,144.184C42.484,144.177 41.884,144.041 41.333,143.785C40.781,143.529 40.29,143.16 39.892,142.7C39.541,142.288 39.278,141.809 39.119,141.291C38.96,140.774 38.909,140.23 38.968,139.692C39.128,138.721 39.404,137.773 39.792,136.868C40.189,135.946 40.458,134.975 40.592,133.98C40.621,132.853 40.459,131.729 40.112,130.656C39.712,129.196 39.34,127.688 39.844,126.16C40.23,125.185 40.759,124.272 41.412,123.452C42.112,122.472 42.836,121.452 43.012,120.416C43.08,119.962 43.104,119.503 43.084,119.044C43.084,118.096 43.056,117.112 43.808,116.244C44.054,115.984 44.322,115.746 44.608,115.532C44.882,115.323 45.135,115.089 45.364,114.832C45.704,114.375 45.932,113.845 46.028,113.284C47.628,106.808 49.124,100.236 50.448,93.744C51.86,86.832 53.132,79.796 54.364,72.992L57.132,57.684C57.366,56.523 57.529,55.349 57.62,54.168C57.68,53.152 56.86,52.568 56.368,52.296C55.545,51.891 54.628,51.714 53.713,51.784C52.798,51.855 51.919,52.17 51.168,52.696C50.499,53.187 49.929,53.801 49.488,54.504C48.288,56.504 48.42,58.68 48.54,60.792L48.572,61.368C49.008,69.644 47.284,78.112 45.612,86.3C44.052,93.956 42.44,101.868 42.6,109.596C42.894,109.709 43.21,109.754 43.524,109.727C43.838,109.7 44.142,109.602 44.412,109.44C44.904,109.114 45.287,108.649 45.512,108.104C47.268,104.544 47.58,100.764 47.884,97.112C47.972,96.044 48.064,94.944 48.188,93.864C48.64,89.992 49.576,86.068 50.48,82.264C51.708,77.116 52.98,71.796 53.04,66.58L53.04,64.852C53.008,62.368 52.972,59.8 54.108,57.3C54.416,56.668 54.563,55.97 54.536,55.268C54.508,54.868 54.008,54.684 53.592,54.672C53.012,54.672 52.392,54.904 52.32,55.392L50.012,75.104C49.376,80.54 48.716,86.164 45.84,91.504C45.829,91.529 45.813,91.551 45.792,91.57C45.772,91.588 45.748,91.603 45.722,91.611C45.696,91.62 45.669,91.624 45.641,91.621C45.614,91.619 45.588,91.611 45.563,91.599C45.539,91.586 45.518,91.568 45.501,91.546C45.484,91.525 45.471,91.5 45.464,91.474C45.457,91.447 45.456,91.419 45.46,91.392C45.464,91.365 45.474,91.339 45.488,91.316C48.328,86.036 48.98,80.452 49.612,75.048L51.924,55.336C52.008,54.604 52.84,54.248 53.6,54.264C54.36,54.28 54.896,54.664 54.932,55.236C54.965,56.003 54.807,56.766 54.472,57.456C53.372,59.856 53.408,62.4 53.44,64.836L53.44,66.576C53.38,71.84 52.104,77.18 50.872,82.348C49.968,86.132 49.032,90.044 48.584,93.892C48.46,94.964 48.368,96.06 48.28,97.124C47.976,100.816 47.66,104.632 45.88,108.26C45.627,108.878 45.19,109.403 44.628,109.764C43.972,110.164 42.876,110.284 42.296,109.844C42.271,109.827 42.251,109.804 42.237,109.778C42.223,109.751 42.216,109.722 42.216,109.692C42.036,101.884 43.66,93.912 45.232,86.2C46.896,78.036 48.62,69.592 48.184,61.368L48.152,60.796C48.028,58.624 47.9,56.376 49.156,54.276C49.625,53.53 50.23,52.878 50.94,52.356C51.752,51.794 52.698,51.459 53.682,51.384C54.667,51.31 55.653,51.499 56.54,51.932C57.536,52.464 58.056,53.264 58.004,54.184C57.91,55.381 57.746,56.571 57.512,57.748L54.8,73.056C53.568,79.856 52.292,86.904 50.88,93.82C49.552,100.316 48.08,106.896 46.456,113.376C46.347,113.996 46.092,114.582 45.712,115.084C45.471,115.36 45.203,115.612 44.912,115.836C44.652,116.038 44.409,116.26 44.184,116.5C43.528,117.256 43.54,118.12 43.556,119.036C43.576,119.521 43.551,120.007 43.48,120.488C43.268,121.616 42.516,122.664 41.788,123.688C41.161,124.477 40.652,125.353 40.276,126.288C39.812,127.708 40.172,129.088 40.552,130.56C40.909,131.676 41.076,132.845 41.044,134.016C40.905,135.049 40.622,136.057 40.204,137.012C39.828,137.887 39.559,138.804 39.404,139.744C39.35,140.227 39.396,140.715 39.539,141.18C39.681,141.644 39.917,142.074 40.232,142.444C40.594,142.86 41.04,143.195 41.54,143.427C42.041,143.658 42.585,143.782 43.136,143.788C44.82,143.872 46.336,142.924 46.904,141.996C47.065,141.773 47.16,141.51 47.18,141.236C47.2,140.962 47.143,140.688 47.016,140.444C47.003,140.421 46.994,140.397 46.99,140.371C46.986,140.345 46.988,140.318 46.994,140.293C47.001,140.267 47.013,140.244 47.029,140.223C47.045,140.202 47.065,140.185 47.088,140.172C47.134,140.146 47.189,140.138 47.241,140.152C47.292,140.165 47.337,140.198 47.364,140.244C47.529,140.549 47.605,140.894 47.584,141.24C47.564,141.587 47.447,141.92 47.248,142.204C46.804,142.826 46.215,143.332 45.532,143.677C44.849,144.022 44.093,144.196 43.328,144.184Z" style="fill:rgb(43,157,157);fill-opacity:0.1;fill-rule:nonzero;"/>
    </g>
    <g transform="matrix(1.905,0,0,1.905,9.5,7.55464)">
        <path d="M44.732,142.32C44.685,142.32 44.64,142.303 44.604,142.272C43.46,141.304 42.76,140.232 42.576,139.164C42.482,138.517 42.562,137.856 42.808,137.25C43.054,136.644 43.457,136.114 43.976,135.716C44.484,135.285 45.104,135.008 45.764,134.916C46.484,134.824 47.34,135.068 47.528,135.632C47.552,135.704 47.572,135.784 47.596,135.868C47.7,136.288 47.76,136.364 47.956,136.324C48.018,136.304 48.075,136.271 48.125,136.229C48.174,136.186 48.215,136.134 48.244,136.076C49.058,134.973 49.73,133.771 50.244,132.5C50.504,131.668 50.667,130.809 50.728,129.94C50.98,127.328 50.968,124.664 50.96,122.088C50.94,117.592 50.92,112.944 52.312,108.392C52.504,107.76 52.712,107.112 52.944,106.488C53.498,105.041 53.9,103.541 54.144,102.012C54.188,101.648 53.804,101.5 53.636,101.452C53.1,101.3 52.38,101.452 52.164,101.92C50.8,104.86 50.324,107.92 49.884,111.316L49.884,111.364C49.755,112.921 49.402,114.452 48.836,115.908C48.506,116.628 48.13,117.327 47.712,118C47.492,118.376 47.272,118.752 47.068,119.128C46.34,120.547 45.717,122.018 45.204,123.528L43.532,128.088C42.892,129.828 42.432,131.376 43.28,132.684C43.344,132.802 43.435,132.903 43.546,132.979C43.656,133.056 43.783,133.105 43.916,133.124C44.297,133.133 44.667,133.003 44.96,132.76C46.84,131.464 48.02,129.56 48.464,127.076C48.615,126.139 48.715,125.195 48.764,124.248C48.816,123.089 48.958,121.937 49.188,120.8C49.2,120.747 49.232,120.701 49.278,120.671C49.324,120.642 49.379,120.632 49.432,120.644C49.485,120.656 49.531,120.688 49.561,120.734C49.59,120.779 49.6,120.835 49.588,120.888C49.365,122.005 49.231,123.138 49.188,124.276C49.136,125.238 49.033,126.197 48.88,127.148C48.416,129.732 47.18,131.728 45.212,133.088C44.84,133.387 44.373,133.542 43.896,133.524C43.704,133.498 43.521,133.429 43.36,133.322C43.199,133.214 43.065,133.071 42.968,132.904C41.94,131.304 42.656,129.372 43.18,127.948L44.852,123.392C45.373,121.87 46.004,120.387 46.74,118.956C46.944,118.556 47.168,118.192 47.392,117.816C47.802,117.155 48.171,116.47 48.496,115.764C49.043,114.341 49.385,112.847 49.512,111.328L49.512,111.28C49.956,107.844 50.44,104.76 51.824,101.768C52.136,101.092 53.076,100.888 53.772,101.084C54.006,101.118 54.219,101.239 54.367,101.423C54.515,101.607 54.589,101.84 54.572,102.076C54.321,103.635 53.906,105.163 53.336,106.636C53.12,107.256 52.9,107.9 52.708,108.524C51.332,113.02 51.352,117.636 51.372,122.104C51.426,124.737 51.348,127.371 51.136,129.996C51.073,130.895 50.904,131.784 50.632,132.644C50.114,133.948 49.431,135.181 48.6,136.312C48.542,136.411 48.465,136.497 48.373,136.566C48.28,136.635 48.176,136.684 48.064,136.712C47.452,136.844 47.308,136.272 47.232,135.964C47.232,135.892 47.196,135.824 47.176,135.76C47.068,135.448 46.444,135.236 45.836,135.312C45.245,135.398 44.69,135.651 44.236,136.04C43.773,136.395 43.412,136.866 43.191,137.406C42.97,137.945 42.895,138.534 42.976,139.112C43.14,140.06 43.776,141.024 44.784,141.912C45.069,141.821 45.311,141.629 45.464,141.372C45.5,141.312 45.523,141.246 45.533,141.178C45.542,141.109 45.538,141.039 45.52,140.972C45.512,140.946 45.509,140.918 45.512,140.891C45.514,140.863 45.522,140.837 45.535,140.812C45.548,140.788 45.565,140.766 45.586,140.749C45.607,140.731 45.632,140.718 45.658,140.71C45.684,140.702 45.712,140.699 45.739,140.701C45.767,140.704 45.793,140.712 45.818,140.725C45.842,140.738 45.864,140.755 45.881,140.776C45.899,140.797 45.912,140.822 45.92,140.848C45.955,140.965 45.966,141.088 45.952,141.21C45.939,141.332 45.9,141.449 45.84,141.556C45.613,141.937 45.245,142.213 44.816,142.324L44.732,142.32Z" style="fill:rgb(43,157,157);fill-opacity:0.1;fill-rule:nonzero;"/>
    </g>
    <g transform="matrix(1.905,0,0,1.905,9.5,7.55464)">
        <path d="M53.444,97.972C53.426,97.976 53.407,97.976 53.388,97.972C53.363,97.966 53.339,97.954 53.318,97.938C53.297,97.922 53.28,97.902 53.267,97.879C53.255,97.857 53.247,97.831 53.244,97.805C53.241,97.779 53.244,97.753 53.252,97.728C55.06,91.364 55.484,84.816 55.892,78.484C56.132,74.824 56.376,71.044 56.884,67.328C57.029,66.072 57.279,64.83 57.632,63.616C58.254,61.83 59.047,60.109 60,58.476C60.012,58.453 60.029,58.432 60.049,58.415C60.07,58.398 60.093,58.385 60.118,58.377C60.144,58.369 60.17,58.367 60.197,58.369C60.223,58.372 60.249,58.38 60.272,58.392C60.318,58.418 60.352,58.461 60.367,58.512C60.382,58.563 60.377,58.617 60.352,58.664C59.406,60.272 58.618,61.968 58,63.728C57.652,64.921 57.406,66.141 57.264,67.376C56.756,71.076 56.512,74.852 56.276,78.5C55.876,84.856 55.44,91.424 53.62,97.828C53.608,97.867 53.585,97.901 53.554,97.927C53.523,97.952 53.484,97.968 53.444,97.972Z" style="fill:rgb(43,157,157);fill-opacity:0.1;fill-rule:nonzero;"/>
    </g>
</svg>
